<svg width="232" height="167" viewBox="0 0 232 167" fill="none" xmlns="http://www.w3.org/2000/svg">
<rect x="66" width="100" height="100" rx="32" fill="#E65628"/>
<path d="M114.08 33.1788C105.868 27.9878 98.3293 21.9498 96.4648 17.6211C96.1681 16.9323 95.0349 16.9873 94.9675 17.7277C93.9131 29.3112 103.566 37.9472 108.947 40.9945C118.128 46.1938 120.899 49.9008 123.412 53.4934C123.888 54.1749 123.271 54.4981 122.707 53.8823C120.016 50.9415 116.139 48.2299 109.231 44.3886C104.11 41.5404 100.338 38.1452 98.3463 35.7622C97.9038 35.2326 96.9388 35.4609 96.9602 36.14C97.1966 43.6284 104.102 49.4589 115.393 55.4905C121.417 58.7079 124.909 62.2424 126.744 64.9971C127.192 65.669 126.476 65.9969 125.896 65.4285C121.974 61.5834 114.972 58.3683 109.513 55.6824C105.356 53.6372 103.542 52.3618 100.565 49.3637C100.086 48.8808 99.2987 49.239 99.4661 49.8887C101.479 57.7015 110.412 62.7826 122.161 69.8841C129.729 74.4582 133.804 79.3297 135.668 82.5899C135.935 83.0569 137.006 82.8908 137.027 82.3594C138.222 52.1958 126.682 41.1447 114.08 33.1788Z" fill="#28292E"/>
<path d="M10.6484 128.734C10.6484 127.25 11.0156 125.898 11.75 124.68C12.5 123.461 13.5 122.492 14.75 121.773C16.0156 121.039 17.4062 120.672 18.9219 120.672H36.1719V125.594H18.9219C18.0156 125.594 17.2344 125.914 16.5781 126.555C15.9219 127.195 15.5938 127.969 15.5938 128.875V131.172C15.5938 132 15.9219 132.711 16.5781 133.305C17.2344 133.898 18.0156 134.195 18.9219 134.195H29.5391C31.0703 134.195 32.4609 134.562 33.7109 135.297C34.9609 136.016 35.9531 136.992 36.6875 138.227C37.4375 139.445 37.8125 140.797 37.8125 142.281V145.914C37.8125 147.398 37.4375 148.758 36.6875 149.992C35.9531 151.211 34.9609 152.188 33.7109 152.922C32.4609 153.641 31.0703 154 29.5391 154H10.6719V149.055H29.5391C30.4609 149.055 31.2422 148.75 31.8828 148.141C32.5391 147.516 32.8672 146.766 32.8672 145.891V142.305C32.8672 141.43 32.5391 140.68 31.8828 140.055C31.2422 139.43 30.4609 139.117 29.5391 139.117H18.9219C17.4062 139.117 16.0156 138.766 14.75 138.062C13.5 137.344 12.5 136.383 11.75 135.18C11.0156 133.977 10.6484 132.648 10.6484 131.195V128.734ZM43.2266 134.664C43.2266 133.305 43.7109 132.141 44.6797 131.172C45.6484 130.203 46.8125 129.719 48.1719 129.719H56.7734C58.3828 129.719 59.8516 130.117 61.1797 130.914C62.5078 131.695 63.5625 132.742 64.3438 134.055C65.1406 135.367 65.5391 136.828 65.5391 138.438V145.234C65.5391 146.844 65.1406 148.312 64.3438 149.641C63.5625 150.969 62.5078 152.031 61.1797 152.828C59.8516 153.609 58.3828 154 56.7734 154H50.9844V149.055H56.7734C57.8359 149.055 58.7344 148.68 59.4688 147.93C60.2188 147.164 60.5938 146.25 60.5938 145.188V138.484C60.5938 137.422 60.2188 136.523 59.4688 135.789C58.7344 135.039 57.8359 134.664 56.7734 134.664H48.1719V163.047H43.2266V134.664ZM71.1641 136.516C71.1641 135.266 71.4766 134.125 72.1016 133.094C72.7422 132.062 73.5859 131.242 74.6328 130.633C75.6953 130.023 76.8672 129.719 78.1484 129.719H83.5625V134.641H78.1484C77.5859 134.641 77.1016 134.836 76.6953 135.227C76.3047 135.602 76.1094 136.062 76.1094 136.609V154H71.1641V136.516ZM88.0391 134.734C88.0391 133.344 88.5469 132.164 89.5625 131.195C90.5781 130.211 91.7969 129.719 93.2188 129.719H103.344C104.641 129.719 105.812 130.039 106.859 130.68C107.922 131.305 108.766 132.156 109.391 133.234C110.031 134.297 110.352 135.477 110.352 136.773V137.453C110.352 138.734 110.031 139.906 109.391 140.969C108.766 142.016 107.922 142.859 106.859 143.5C105.812 144.125 104.641 144.438 103.344 144.438H95.7969V139.516H103.391C103.953 139.516 104.43 139.312 104.82 138.906C105.227 138.5 105.43 138.008 105.43 137.43V136.773C105.43 136.18 105.227 135.68 104.82 135.273C104.43 134.867 103.953 134.664 103.391 134.664H92.9844V147.133C92.9844 147.664 93.1641 148.117 93.5234 148.492C93.8828 148.867 94.3203 149.055 94.8359 149.055H108.641V154H94.8359C93.5859 154 92.4453 153.695 91.4141 153.086C90.3828 152.461 89.5625 151.633 88.9531 150.602C88.3438 149.555 88.0391 148.406 88.0391 147.156V134.734ZM115.273 136.539C115.273 135.273 115.586 134.125 116.211 133.094C116.852 132.062 117.695 131.242 118.742 130.633C119.805 130.023 120.977 129.719 122.258 129.719H136.508V134.664H122.258C121.695 134.664 121.211 134.852 120.805 135.227C120.414 135.586 120.219 136.023 120.219 136.539V137.125C120.219 137.656 120.414 138.109 120.805 138.484C121.211 138.859 121.695 139.047 122.258 139.047H131.117C132.398 139.047 133.562 139.359 134.609 139.984C135.672 140.594 136.516 141.414 137.141 142.445C137.766 143.477 138.078 144.625 138.078 145.891V147.156C138.078 148.406 137.766 149.555 137.141 150.602C136.516 151.633 135.672 152.461 134.609 153.086C133.562 153.695 132.398 154 131.117 154H116.375V149.055H131.117C131.68 149.055 132.156 148.867 132.547 148.492C132.953 148.117 133.156 147.664 133.156 147.133V145.914C133.156 145.367 132.953 144.906 132.547 144.531C132.156 144.156 131.68 143.969 131.117 143.969H122.258C120.977 143.969 119.805 143.664 118.742 143.055C117.695 142.43 116.852 141.602 116.211 140.57C115.586 139.523 115.273 138.375 115.273 137.125V136.539ZM170.773 136.539C170.773 135.273 171.086 134.125 171.711 133.094C172.352 132.062 173.195 131.242 174.242 130.633C175.305 130.023 176.477 129.719 177.758 129.719H192.008V134.664H177.758C177.195 134.664 176.711 134.852 176.305 135.227C175.914 135.586 175.719 136.023 175.719 136.539V137.125C175.719 137.656 175.914 138.109 176.305 138.484C176.711 138.859 177.195 139.047 177.758 139.047H186.617C187.898 139.047 189.062 139.359 190.109 139.984C191.172 140.594 192.016 141.414 192.641 142.445C193.266 143.477 193.578 144.625 193.578 145.891V147.156C193.578 148.406 193.266 149.555 192.641 150.602C192.016 151.633 191.172 152.461 190.109 153.086C189.062 153.695 187.898 154 186.617 154H171.875V149.055H186.617C187.18 149.055 187.656 148.867 188.047 148.492C188.453 148.117 188.656 147.664 188.656 147.133V145.914C188.656 145.367 188.453 144.906 188.047 144.531C187.656 144.156 187.18 143.969 186.617 143.969H177.758C176.477 143.969 175.305 143.664 174.242 143.055C173.195 142.43 172.352 141.602 171.711 140.57C171.086 139.523 170.773 138.375 170.773 137.125V136.539ZM198.758 138.484C198.758 136.875 199.148 135.406 199.93 134.078C200.727 132.75 201.789 131.695 203.117 130.914C204.445 130.117 205.914 129.719 207.523 129.719H212.82C214.43 129.719 215.898 130.117 217.227 130.914C218.555 131.695 219.609 132.75 220.391 134.078C221.188 135.406 221.586 136.875 221.586 138.484V145.234C221.586 146.844 221.188 148.312 220.391 149.641C219.609 150.969 218.555 152.031 217.227 152.828C215.898 153.609 214.43 154 212.82 154H207.523C205.914 154 204.445 153.609 203.117 152.828C201.789 152.031 200.727 150.969 199.93 149.641C199.148 148.312 198.758 146.844 198.758 145.234V138.484ZM203.703 145.188C203.703 146.25 204.078 147.164 204.828 147.93C205.578 148.68 206.477 149.055 207.523 149.055H212.82C213.883 149.055 214.781 148.68 215.516 147.93C216.266 147.164 216.641 146.25 216.641 145.188V138.531C216.641 137.469 216.266 136.562 215.516 135.812C214.781 135.047 213.883 134.664 212.82 134.664H207.523C206.477 134.664 205.578 135.047 204.828 135.812C204.078 136.562 203.703 137.469 203.703 138.531V145.188Z" fill="white"/>
<path d="M143.023 136.539C143.023 135.273 143.336 134.125 143.961 133.094C144.602 132.062 145.445 131.242 146.492 130.633C147.555 130.023 148.727 129.719 150.008 129.719H164.258V134.664H150.008C149.445 134.664 148.961 134.852 148.555 135.227C148.164 135.586 147.969 136.023 147.969 136.539V137.125C147.969 137.656 148.164 138.109 148.555 138.484C148.961 138.859 149.445 139.047 150.008 139.047H158.867C160.148 139.047 161.312 139.359 162.359 139.984C163.422 140.594 164.266 141.414 164.891 142.445C165.516 143.477 165.828 144.625 165.828 145.891V147.156C165.828 148.406 165.516 149.555 164.891 150.602C164.266 151.633 163.422 152.461 162.359 153.086C161.312 153.695 160.148 154 158.867 154H144.125V149.055H158.867C159.43 149.055 159.906 148.867 160.297 148.492C160.703 148.117 160.906 147.664 160.906 147.133V145.914C160.906 145.367 160.703 144.906 160.297 144.531C159.906 144.156 159.43 143.969 158.867 143.969H150.008C148.727 143.969 147.555 143.664 146.492 143.055C145.445 142.43 144.602 141.602 143.961 140.57C143.336 139.523 143.023 138.375 143.023 137.125V136.539Z" fill="#E65628"/>
</svg>
